STARTFONT 2.1
COMMENT This font image translated from Metafont
COMMENT Input file was ``bnr10''
COMMENT DPI was ``120'', usermag ``1000'', blackness ``3''
COMMENT shrink was 1
FONT -*-bengali2-medium-r-*-*-*-120-*-*-*-*-iso10646-1
SIZE 10 120 120
FONTBOUNDINGBOX 31 21 -10 -5
STARTPROPERTIES 5
FONT_ASCENT 16
FONT_DESCENT 3
COPYRIGHT "GNU General Public License"
DEFAULT_CHAR 319
_XMBDFED_INFO "Edited with xmbdfed 4.5."
ENDPROPERTIES
CHARS 249
STARTCHAR C257
ENCODING 257
SWIDTH 480 0
DWIDTH 8 0
BBX 10 15 -1 -1
BITMAP
8000
7E00
0100
0080
7FC0
0E00
1900
0100
0100
2200
1C00
0C00
0200
0100
0080
ENDCHAR
STARTCHAR C258
ENCODING 258
SWIDTH 600 0
DWIDTH 10 0
BBX 11 14 0 0
BITMAP
8000
7F00
0080
0040
FFE0
3000
6880
6580
0700
0D00
1900
6100
0100
0080
ENDCHAR
STARTCHAR C259
ENCODING 259
SWIDTH 600 0
DWIDTH 10 0
BBX 13 14 -2 1
BITMAP
8000
C000
3FC0
0020
0010
3FF8
0100
1100
1120
11D0
1010
0810
0420
03C0
ENDCHAR
STARTCHAR C260
ENCODING 260
SWIDTH 660 0
DWIDTH 11 0
BBX 12 13 0 1
BITMAP
8000
7F80
0040
0020
FFF0
A200
A200
6240
63A0
5020
3020
1840
0F80
ENDCHAR
STARTCHAR C261
ENCODING 261
SWIDTH 720 0
DWIDTH 12 0
BBX 10 10 1 0
BITMAP
CA40
F640
1A40
2240
4240
6240
1340
0AC0
0640
0200
ENDCHAR
STARTCHAR C262
ENCODING 262
SWIDTH 660 0
DWIDTH 11 0
BBX 9 10 1 0
BITMAP
0700
0880
1080
9C80
9C80
8080
8080
7F80
0080
0080
ENDCHAR
STARTCHAR C263
ENCODING 263
SWIDTH 780 0
DWIDTH 13 0
BBX 12 15 1 0
BITMAP
1800
1000
1000
0F80
0060
0710
0890
10A0
9CC0
9C80
8080
8080
7F80
0080
0080
ENDCHAR
STARTCHAR C264
ENCODING 264
SWIDTH 600 0
DWIDTH 10 0
BBX 8 9 1 1
BITMAP
1E
31
B1
8E
8E
81
41
22
1C
ENDCHAR
STARTCHAR C270
ENCODING 270
SWIDTH 300 0
DWIDTH 5 0
BBX 6 10 0 0
BITMAP
FC
10
20
20
20
20
20
20
20
40
ENDCHAR
STARTCHAR C271
ENCODING 271
SWIDTH 0 0
DWIDTH 0 0
BBX 9 3 -10 -1
BITMAP
8080
8080
7F80
ENDCHAR
STARTCHAR C272
ENCODING 272
SWIDTH 600 0
DWIDTH 10 0
BBX 11 11 0 -1
BITMAP
FFE0
1880
1480
6700
0C80
1880
0080
1F00
0600
0100
0080
ENDCHAR
STARTCHAR C273
ENCODING 273
SWIDTH 600 0
DWIDTH 10 0
BBX 12 10 0 0
BITMAP
FFF0
0C20
0A20
71C0
0040
0040
3F40
38C0
3840
0040
ENDCHAR
STARTCHAR C274
ENCODING 274
SWIDTH 1140 0
DWIDTH 19 0
BBX 20 11 0 0
BITMAP
000040
FF9E70
18E140
1492C0
631440
001840
000040
000040
000040
000040
000040
ENDCHAR
STARTCHAR C275
ENCODING 275
SWIDTH 1140 0
DWIDTH 19 0
BBX 20 11 0 0
BITMAP
000040
FF9E70
18E140
1492C0
631440
001840
001C40
0023C0
003840
001840
000040
ENDCHAR
STARTCHAR C276
ENCODING 276
SWIDTH 1020 0
DWIDTH 17 0
BBX 18 10 0 0
BITMAP
FFFFC0
188600
148500
63C480
002480
004780
00C700
003400
000C00
000400
ENDCHAR
STARTCHAR C277
ENCODING 277
SWIDTH 600 0
DWIDTH 10 0
BBX 12 10 0 0
BITMAP
FFF0
0C20
0A20
71C0
00C0
0740
1C40
0240
01C0
0040
ENDCHAR
STARTCHAR C278
ENCODING 278
SWIDTH 780 0
DWIDTH 13 0
BBX 14 10 0 0
BITMAP
FFFC
0850
1450
6390
0090
0090
01D0
01B0
0010
0010
ENDCHAR
STARTCHAR C279
ENCODING 279
SWIDTH 600 0
DWIDTH 10 0
BBX 12 10 0 0
BITMAP
FFF0
0C20
0A20
71C0
0040
1C40
23C0
3240
3040
0040
ENDCHAR
STARTCHAR C280
ENCODING 280
SWIDTH 480 0
DWIDTH 8 0
BBX 9 11 0 -1
BITMAP
FF80
3C00
6200
0200
4200
3C00
0C00
3E00
4500
6400
0400
ENDCHAR
STARTCHAR C281
ENCODING 281
SWIDTH 720 0
DWIDTH 12 0
BBX 14 10 0 0
BITMAP
FFFC
0100
0560
1170
2110
31E0
0900
0500
1B00
1900
ENDCHAR
STARTCHAR C282
ENCODING 282
SWIDTH 720 0
DWIDTH 12 0
BBX 13 10 0 0
BITMAP
FFF8
0100
0540
11A0
2120
3120
0920
0520
1B20
1920
ENDCHAR
STARTCHAR C283
ENCODING 283
SWIDTH 540 0
DWIDTH 9 0
BBX 10 11 0 -1
BITMAP
FFC0
3200
6D00
6500
6100
0200
7C00
1800
0400
0300
0080
ENDCHAR
STARTCHAR C284
ENCODING 284
SWIDTH 660 0
DWIDTH 11 0
BBX 12 11 0 -1
BITMAP
FFF0
1E00
3180
0140
0140
0240
3C40
1840
0440
0240
0180
ENDCHAR
STARTCHAR C285
ENCODING 285
SWIDTH 720 0
DWIDTH 12 0
BBX 10 10 1 0
BITMAP
3D00
F380
C980
8880
9380
4380
4040
2040
1080
0F00
ENDCHAR
STARTCHAR C286
ENCODING 286
SWIDTH 720 0
DWIDTH 12 0
BBX 10 10 1 0
BITMAP
ED00
BB80
FD80
EC80
8380
4380
4040
2040
1080
0F00
ENDCHAR
STARTCHAR C287
ENCODING 287
SWIDTH 660 0
DWIDTH 11 0
BBX 12 10 0 0
BITMAP
FFF0
1C00
7380
02C0
02C0
4400
3800
0800
0600
0100
ENDCHAR
STARTCHAR C288
ENCODING 288
SWIDTH 420 0
DWIDTH 7 0
BBX 0 0 0 0
BITMAP
ENDCHAR
STARTCHAR C289
ENCODING 289
SWIDTH 600 0
DWIDTH 10 0
BBX 3 13 6 -2
BITMAP
40
40
40
40
40
40
40
40
40
00
00
E0
E0
ENDCHAR
STARTCHAR C290
ENCODING 290
SWIDTH 420 0
DWIDTH 7 0
BBX 6 6 1 7
BITMAP
FC
FC
24
48
48
80
ENDCHAR
STARTCHAR C291
ENCODING 291
SWIDTH 540 0
DWIDTH 9 0
BBX 7 12 1 -2
BITMAP
14
14
14
24
FE
28
28
FE
48
50
50
50
ENDCHAR
STARTCHAR C292
ENCODING 292
SWIDTH 660 0
DWIDTH 11 0
BBX 9 14 1 -1
BITMAP
0400
0800
0800
0800
1000
1000
1000
2780
2000
2000
4000
4000
4000
8000
ENDCHAR
STARTCHAR C293
ENCODING 293
SWIDTH 720 0
DWIDTH 12 0
BBX 10 15 1 -1
BITMAP
6000
B080
9F80
9100
9200
9200
9400
6400
0980
0A40
1240
2240
2240
4240
4180
ENDCHAR
STARTCHAR C294
ENCODING 294
SWIDTH 480 0
DWIDTH 8 0
BBX 8 12 1 -1
BITMAP
34
CF
CC
0C
F4
34
0C
04
3C
64
1C
04
ENDCHAR
STARTCHAR C295
ENCODING 295
SWIDTH 300 0
DWIDTH 5 0
BBX 3 5 1 8
BITMAP
E0
E0
20
20
40
ENDCHAR
STARTCHAR C296
ENCODING 296
SWIDTH 300 0
DWIDTH 5 0
BBX 4 16 1 -3
BITMAP
10
20
60
60
40
C0
C0
C0
C0
C0
C0
C0
60
60
20
10
ENDCHAR
STARTCHAR C297
ENCODING 297
SWIDTH 300 0
DWIDTH 5 0
BBX 4 16 0 -3
BITMAP
80
40
60
60
20
30
30
30
30
30
30
30
60
60
40
80
ENDCHAR
STARTCHAR C298
ENCODING 298
SWIDTH 480 0
DWIDTH 8 0
BBX 6 8 1 5
BITMAP
10
94
58
30
78
94
10
10
ENDCHAR
STARTCHAR C299
ENCODING 299
SWIDTH 660 0
DWIDTH 11 0
BBX 11 10 0 0
BITMAP
0400
0400
0400
0400
0400
FFE0
0400
0400
0400
0400
ENDCHAR
STARTCHAR C300
ENCODING 300
SWIDTH 360 0
DWIDTH 6 0
BBX 3 5 2 -3
BITMAP
E0
E0
20
40
40
ENDCHAR
STARTCHAR C301
ENCODING 301
SWIDTH 360 0
DWIDTH 6 0
BBX 6 1 0 4
BITMAP
FC
ENDCHAR
STARTCHAR C302
ENCODING 302
SWIDTH 480 0
DWIDTH 8 0
BBX 1 10 6 0
BITMAP
80
80
80
80
80
80
80
80
80
80
ENDCHAR
STARTCHAR C303
ENCODING 303
SWIDTH 300 0
DWIDTH 5 0
BBX 5 12 0 -2
BITMAP
08
10
10
10
10
20
20
20
40
40
40
80
ENDCHAR
STARTCHAR C304
ENCODING 304
SWIDTH 540 0
DWIDTH 9 0
BBX 7 8 1 1
BITMAP
38
44
82
82
82
82
44
38
ENDCHAR
STARTCHAR C305
ENCODING 305
SWIDTH 540 0
DWIDTH 9 0
BBX 7 10 1 0
BITMAP
C0
80
60
18
04
02
02
1A
3C
30
ENDCHAR
STARTCHAR C306
ENCODING 306
SWIDTH 540 0
DWIDTH 9 0
BBX 7 11 1 -1
BITMAP
40
60
1C
02
02
82
7C
30
08
04
02
ENDCHAR
STARTCHAR C307
ENCODING 307
SWIDTH 540 0
DWIDTH 9 0
BBX 9 7 0 1
BITMAP
8400
4F00
4C80
4080
2080
1100
0E00
ENDCHAR
STARTCHAR C308
ENCODING 308
SWIDTH 540 0
DWIDTH 9 0
BBX 7 10 1 0
BITMAP
7C
82
82
82
7C
7C
82
82
82
7C
ENDCHAR
STARTCHAR C309
ENCODING 309
SWIDTH 540 0
DWIDTH 9 0
BBX 8 10 0 0
BITMAP
18
28
47
41
82
84
84
84
44
3E
ENDCHAR
STARTCHAR C310
ENCODING 310
SWIDTH 540 0
DWIDTH 9 0
BBX 9 8 0 1
BITMAP
1000
8800
4900
4A80
4C80
4080
2100
1E00
ENDCHAR
STARTCHAR C311
ENCODING 311
SWIDTH 540 0
DWIDTH 9 0
BBX 7 10 1 0
BITMAP
38
44
84
FC
04
04
04
04
04
02
ENDCHAR
STARTCHAR C312
ENCODING 312
SWIDTH 540 0
DWIDTH 9 0
BBX 9 10 0 0
BITMAP
C000
4000
4000
4080
7F00
4400
4400
4400
4800
7000
ENDCHAR
STARTCHAR C313
ENCODING 313
SWIDTH 540 0
DWIDTH 9 0
BBX 7 10 1 0
BITMAP
80
80
40
30
08
04
72
8A
CA
CC
ENDCHAR
STARTCHAR C314
ENCODING 314
SWIDTH 420 0
DWIDTH 7 0
BBX 3 8 3 1
BITMAP
E0
E0
E0
00
00
00
E0
E0
ENDCHAR
STARTCHAR C315
ENCODING 315
SWIDTH 360 0
DWIDTH 6 0
BBX 3 9 2 -3
BITMAP
E0
E0
E0
00
E0
E0
20
40
40
ENDCHAR
STARTCHAR C316
ENCODING 316
SWIDTH 720 0
DWIDTH 12 0
BBX 6 10 6 0
BITMAP
84
84
84
84
84
84
84
84
84
84
ENDCHAR
STARTCHAR C317
ENCODING 317
SWIDTH 720 0
DWIDTH 12 0
BBX 10 5 1 2
BITMAP
FFC0
0000
0000
0000
FFC0
ENDCHAR
STARTCHAR C318
ENCODING 318
SWIDTH 480 0
DWIDTH 8 0
BBX 9 11 0 -1
BITMAP
FF80
3C00
6200
0200
4200
3C00
0C00
0200
1F00
3200
0E00
ENDCHAR
STARTCHAR C319
ENCODING 319
SWIDTH 780 0
DWIDTH 13 0
BBX 6 12 6 -1
BITMAP
78
C4
C4
04
08
08
10
10
10
00
30
30
ENDCHAR
STARTCHAR C320
ENCODING 320
SWIDTH 660 0
DWIDTH 11 0
BBX 12 11 0 -1
BITMAP
FFF0
0400
7400
6CC0
0740
0440
00C0
0340
0740
00C0
0040
ENDCHAR
STARTCHAR C321
ENCODING 321
SWIDTH 300 0
DWIDTH 5 0
BBX 6 11 0 0
BITMAP
20
FC
20
20
20
20
20
20
20
20
20
ENDCHAR
STARTCHAR C322
ENCODING 322
SWIDTH 540 0
DWIDTH 9 0
BBX 8 10 1 0
BITMAP
78
44
B8
80
80
60
18
06
01
01
ENDCHAR
STARTCHAR C323
ENCODING 323
SWIDTH 540 0
DWIDTH 9 0
BBX 10 11 0 -1
BITMAP
FFC0
4000
7E00
4900
4900
7100
0600
7800
0C00
0300
0080
ENDCHAR
STARTCHAR C324
ENCODING 324
SWIDTH 600 0
DWIDTH 10 0
BBX 11 9 0 1
BITMAP
FFE0
0400
4400
4480
4740
4040
2040
1080
0F00
ENDCHAR
STARTCHAR C325
ENCODING 325
SWIDTH 300 0
DWIDTH 5 0
BBX 8 16 -2 -1
BITMAP
80
80
78
04
02
3F
04
08
08
10
10
10
10
10
0A
06
ENDCHAR
STARTCHAR C326
ENCODING 326
SWIDTH 540 0
DWIDTH 9 0
BBX 10 10 0 0
BITMAP
FFC0
3100
0900
1500
2300
6100
1900
0500
0300
0100
ENDCHAR
STARTCHAR C327
ENCODING 327
SWIDTH 540 0
DWIDTH 9 0
BBX 10 10 0 0
BITMAP
FFC0
4100
4100
3900
1100
2100
3100
0D00
0300
0100
ENDCHAR
STARTCHAR C328
ENCODING 328
SWIDTH 360 0
DWIDTH 6 0
BBX 4 9 1 1
BITMAP
60
90
90
60
00
60
90
90
60
ENDCHAR
STARTCHAR C329
ENCODING 329
SWIDTH 240 0
DWIDTH 4 0
BBX 13 15 -8 0
BITMAP
7E00
8180
8040
7E20
0120
00F8
0020
0020
0020
0020
0020
0020
0020
0020
0020
ENDCHAR
STARTCHAR C330
ENCODING 330
SWIDTH 660 0
DWIDTH 11 0
BBX 12 11 0 0
BITMAP
0040
FE70
0640
0A40
1240
2240
3240
0B40
06C0
0240
0200
ENDCHAR
STARTCHAR C331
ENCODING 331
SWIDTH 600 0
DWIDTH 10 0
BBX 11 11 0 0
BITMAP
0080
0CE0
F280
E280
0280
0C80
3880
0480
0280
0180
0080
ENDCHAR
STARTCHAR C332
ENCODING 332
SWIDTH 720 0
DWIDTH 12 0
BBX 14 10 0 0
BITMAP
FFFC
2080
7FE0
6490
0490
1C90
1E90
1D90
0090
0090
ENDCHAR
STARTCHAR C333
ENCODING 333
SWIDTH 420 0
DWIDTH 7 0
BBX 4 9 2 1
BITMAP
40
A0
A0
40
80
80
40
20
10
ENDCHAR
STARTCHAR C334
ENCODING 334
SWIDTH 540 0
DWIDTH 9 0
BBX 9 11 1 0
BITMAP
0200
7B80
8600
8200
A200
6200
0200
0200
0200
0200
0200
ENDCHAR
STARTCHAR C335
ENCODING 335
SWIDTH 240 0
DWIDTH 4 0
BBX 13 15 -8 0
BITMAP
8000
8000
7F80
0040
0020
00F8
0020
0020
0020
0020
0020
0020
0020
0020
0020
ENDCHAR
STARTCHAR C336
ENCODING 336
SWIDTH 780 0
DWIDTH 13 0
BBX 11 11 1 0
BITMAP
0200
72C0
CB20
CA20
1260
6260
E220
1320
0AC0
0600
0600
ENDCHAR
STARTCHAR C337
ENCODING 337
SWIDTH 900 0
DWIDTH 15 0
BBX 13 10 1 0
BITMAP
0700
08B0
10C8
9C88
9CB8
80B8
8088
7FC8
00B0
0080
ENDCHAR
STARTCHAR C338
ENCODING 338
SWIDTH 600 0
DWIDTH 10 0
BBX 11 12 0 -2
BITMAP
FFE0
0400
4400
4480
4740
4040
2040
1080
0F00
0000
0600
0600
ENDCHAR
STARTCHAR C339
ENCODING 339
SWIDTH 600 0
DWIDTH 10 0
BBX 11 11 0 0
BITMAP
0080
CEE0
3180
3880
7C80
7C80
0080
0080
0080
0080
0080
ENDCHAR
STARTCHAR C340
ENCODING 340
SWIDTH 480 0
DWIDTH 8 0
BBX 10 14 -1 0
BITMAP
8000
7E00
0100
0080
7FC0
2000
2000
2300
2300
2100
2100
2200
2400
1800
ENDCHAR
STARTCHAR C341
ENCODING 341
SWIDTH 0 0
DWIDTH 0 0
BBX 8 6 -5 -5
BITMAP
70
80
80
78
06
01
ENDCHAR
STARTCHAR C342
ENCODING 342
SWIDTH 480 0
DWIDTH 8 0
BBX 9 12 0 -2
BITMAP
FF80
4000
4000
4600
4600
4200
4200
4400
4800
3000
3000
3000
ENDCHAR
STARTCHAR C343
ENCODING 343
SWIDTH 0 0
DWIDTH 0 0
BBX 4 3 -4 -3
BITMAP
40
C0
30
ENDCHAR
STARTCHAR C344
ENCODING 344
SWIDTH 480 0
DWIDTH 8 0
BBX 9 10 0 0
BITMAP
FF80
4000
4000
4600
4600
4200
4200
4400
4800
3000
ENDCHAR
STARTCHAR C345
ENCODING 345
SWIDTH 540 0
DWIDTH 9 0
BBX 10 10 0 0
BITMAP
FFC0
3100
0900
1100
2100
6100
1900
0500
0300
0100
ENDCHAR
STARTCHAR C346
ENCODING 346
SWIDTH 480 0
DWIDTH 8 0
BBX 9 16 0 0
BITMAP
1000
2000
2000
2000
1000
1000
FF80
0C00
0C00
0A00
0A00
1200
2200
4200
4400
3800
ENDCHAR
STARTCHAR C347
ENCODING 347
SWIDTH 180 0
DWIDTH 3 0
BBX 3 17 1 -3
BITMAP
E0
E0
80
80
80
80
80
80
80
80
80
80
80
80
80
80
E0
ENDCHAR
STARTCHAR C348
ENCODING 348
SWIDTH 420 0
DWIDTH 7 0
BBX 6 6 1 7
BITMAP
48
48
90
FC
FC
FC
ENDCHAR
STARTCHAR C349
ENCODING 349
SWIDTH 180 0
DWIDTH 3 0
BBX 3 17 0 -3
BITMAP
E0
E0
60
60
60
60
60
60
60
60
60
60
60
60
60
E0
E0
ENDCHAR
STARTCHAR C350
ENCODING 350
SWIDTH 0 0
DWIDTH 0 0
BBX 6 4 -2 11
BITMAP
04
10
60
80
ENDCHAR
STARTCHAR C351
ENCODING 351
SWIDTH 0 0
DWIDTH 0 0
BBX 4 3 -2 -4
BITMAP
80
60
10
ENDCHAR
STARTCHAR C352
ENCODING 352
SWIDTH 300 0
DWIDTH 5 0
BBX 3 6 1 7
BITMAP
40
40
80
E0
E0
E0
ENDCHAR
STARTCHAR C353
ENCODING 353
SWIDTH 780 0
DWIDTH 13 0
BBX 14 10 0 0
BITMAP
FFFC
0E10
4D90
4C50
2050
2050
1050
08B0
0730
0010
ENDCHAR
STARTCHAR C354
ENCODING 354
SWIDTH 480 0
DWIDTH 8 0
BBX 10 10 0 0
BITMAP
FFC0
0300
0900
1100
4100
6100
1900
0500
0300
0100
ENDCHAR
STARTCHAR C355
ENCODING 355
SWIDTH 480 0
DWIDTH 8 0
BBX 9 10 0 0
BITMAP
FF80
4000
6000
5800
4600
4200
4200
4400
4800
3000
ENDCHAR
STARTCHAR C356
ENCODING 356
SWIDTH 480 0
DWIDTH 8 0
BBX 9 10 0 0
BITMAP
FF80
4000
4200
4E00
5400
6400
4400
0400
0400
0400
ENDCHAR
STARTCHAR C357
ENCODING 357
SWIDTH 300 0
DWIDTH 5 0
BBX 6 11 0 -1
BITMAP
FC
10
20
20
40
40
40
40
40
28
18
ENDCHAR
STARTCHAR C358
ENCODING 358
SWIDTH 660 0
DWIDTH 11 0
BBX 12 10 0 0
BITMAP
FFF0
3000
09C0
1120
21E0
61C0
1900
0500
0300
0300
ENDCHAR
STARTCHAR C359
ENCODING 359
SWIDTH 540 0
DWIDTH 9 0
BBX 10 11 0 0
BITMAP
0100
3DC0
4300
F300
8900
0900
1100
1100
0100
0100
0100
ENDCHAR
STARTCHAR C360
ENCODING 360
SWIDTH 480 0
DWIDTH 8 0
BBX 9 11 0 -1
BITMAP
FF80
1C00
3200
0200
0200
4400
3800
1800
0400
0200
0100
ENDCHAR
STARTCHAR C361
ENCODING 361
SWIDTH 240 0
DWIDTH 4 0
BBX 12 15 0 0
BITMAP
1F00
20C0
4020
4010
4000
FC00
2000
2000
2000
2000
2000
2000
2000
2000
2000
ENDCHAR
STARTCHAR C362
ENCODING 362
SWIDTH 720 0
DWIDTH 12 0
BBX 13 10 0 0
BITMAP
FFF8
9800
A7E0
A040
6340
5CC0
20C0
10C0
0F20
0020
ENDCHAR
STARTCHAR C363
ENCODING 363
SWIDTH 720 0
DWIDTH 12 0
BBX 13 10 0 0
BITMAP
FFF8
01C0
0520
1120
2100
6160
1960
0500
0300
0100
ENDCHAR
STARTCHAR C364
ENCODING 364
SWIDTH 600 0
DWIDTH 10 0
BBX 11 10 0 0
BITMAP
FFE0
0080
3B80
4580
4480
5880
3880
0080
0080
0080
ENDCHAR
STARTCHAR C365
ENCODING 365
SWIDTH 540 0
DWIDTH 9 0
BBX 10 10 0 0
BITMAP
FFC0
4100
2100
1100
0900
3900
3D00
3B00
0100
0100
ENDCHAR
STARTCHAR C366
ENCODING 366
SWIDTH 540 0
DWIDTH 9 0
BBX 10 10 0 0
BITMAP
FFC0
0100
0100
0100
7900
7500
7300
0100
0100
0100
ENDCHAR
STARTCHAR C367
ENCODING 367
SWIDTH 660 0
DWIDTH 11 0
BBX 10 14 0 1
BITMAP
1800
1000
1000
0F80
0040
0F40
98C0
9880
8780
8700
4080
4080
2100
1E00
ENDCHAR
STARTCHAR C368
ENCODING 368
SWIDTH 600 0
DWIDTH 10 0
BBX 10 11 1 0
BITMAP
0100
79C0
C500
2700
3900
2100
0100
0100
0100
0100
0100
ENDCHAR
STARTCHAR C369
ENCODING 369
SWIDTH 600 0
DWIDTH 10 0
BBX 8 10 1 1
BITMAP
0C
52
52
BC
92
93
9D
41
22
1C
ENDCHAR
STARTCHAR C370
ENCODING 370
SWIDTH 480 0
DWIDTH 8 0
BBX 10 10 0 0
BITMAP
FFC0
0300
0900
1100
4100
6100
1900
0500
1B00
1900
ENDCHAR
STARTCHAR C371
ENCODING 371
SWIDTH 600 0
DWIDTH 10 0
BBX 11 10 0 0
BITMAP
FFE0
1080
0880
0E80
0980
4880
3080
0080
0080
0080
ENDCHAR
STARTCHAR C372
ENCODING 372
SWIDTH 600 0
DWIDTH 10 0
BBX 11 9 0 1
BITMAP
FFE0
8000
8F00
4E80
4E40
4040
2040
1080
0F00
ENDCHAR
STARTCHAR C373
ENCODING 373
SWIDTH 0 0
DWIDTH 0 0
BBX 7 4 -5 -4
BITMAP
70
90
6C
02
ENDCHAR
STARTCHAR C374
ENCODING 374
SWIDTH 600 0
DWIDTH 10 0
BBX 12 9 0 1
BITMAP
FFF0
8000
8C00
4CC0
4F20
4020
2020
1040
0F80
ENDCHAR
STARTCHAR C375
ENCODING 375
SWIDTH 0 0
DWIDTH 0 0
BBX 6 4 -5 11
BITMAP
B0
B4
44
38
ENDCHAR
STARTCHAR C376
ENCODING 376
SWIDTH 540 0
DWIDTH 9 0
BBX 9 11 1 0
BITMAP
2000
6380
4600
3A00
2200
4200
C200
3200
0A00
0600
0200
ENDCHAR
STARTCHAR C377
ENCODING 377
SWIDTH 540 0
DWIDTH 9 0
BBX 10 10 0 0
BITMAP
FFC0
3100
0900
1100
2100
6100
1900
0500
1B00
1900
ENDCHAR
STARTCHAR C378
ENCODING 378
SWIDTH 600 0
DWIDTH 10 0
BBX 10 11 1 0
BITMAP
0100
79C0
C500
C500
0900
7100
7100
0D00
0300
0100
0100
ENDCHAR
STARTCHAR C379
ENCODING 379
SWIDTH 600 0
DWIDTH 10 0
BBX 11 1 0 4
BITMAP
FFE0
ENDCHAR
STARTCHAR C380
ENCODING 380
SWIDTH 1080 0
DWIDTH 18 0
BBX 19 1 0 4
BITMAP
FFFFE0
ENDCHAR
STARTCHAR C381
ENCODING 381
SWIDTH 480 0
DWIDTH 8 0
BBX 9 11 0 -1
BITMAP
FF80
3C00
6200
0200
4200
3C00
0C00
3E00
4B00
6200
6200
ENDCHAR
STARTCHAR C382
ENCODING 382
SWIDTH 660 0
DWIDTH 11 0
BBX 10 4 0 3
BITMAP
3800
7C40
C7C0
0380
ENDCHAR
STARTCHAR C383
ENCODING 383
SWIDTH 960 0
DWIDTH 16 0
BBX 17 13 0 -2
BITMAP
000200
FFF380
048E00
05C600
04A200
47A200
406200
404200
204200
108200
0F0200
060000
060000
ENDCHAR
STARTCHAR C384
ENCODING 384
SWIDTH 720 0
DWIDTH 12 0
BBX 13 10 0 0
BITMAP
FFF8
07C0
1920
2160
27E0
1940
3120
0D60
0340
0100
ENDCHAR
STARTCHAR C385
ENCODING 385
SWIDTH 540 0
DWIDTH 9 0
BBX 10 15 0 -1
BITMAP
C000
3E00
0100
0080
FFC0
0E00
3500
6700
1700
0C00
0F00
1300
1100
1200
0C00
ENDCHAR
STARTCHAR C386
ENCODING 386
SWIDTH 720 0
DWIDTH 12 0
BBX 14 10 0 0
BITMAP
FFFC
0F00
10E0
7090
7770
4770
2080
2080
1080
0F00
ENDCHAR
STARTCHAR C387
ENCODING 387
SWIDTH 720 0
DWIDTH 12 0
BBX 13 10 0 0
BITMAP
FFF8
0780
1940
2120
2760
1960
3100
0D00
0300
0100
ENDCHAR
STARTCHAR C388
ENCODING 388
SWIDTH 660 0
DWIDTH 11 0
BBX 12 10 0 0
BITMAP
FFF0
1E40
6540
6740
1740
0C40
0F40
0EC0
0040
0040
ENDCHAR
STARTCHAR C389
ENCODING 389
SWIDTH 840 0
DWIDTH 14 0
BBX 15 10 0 0
BITMAP
FFFE
0300
04B0
08C8
4E98
4E98
4080
4080
3F80
0080
ENDCHAR
STARTCHAR C390
ENCODING 390
SWIDTH 660 0
DWIDTH 11 0
BBX 12 10 0 0
BITMAP
FFF0
0780
1940
31C0
0DC0
0300
3700
4B00
6100
6100
ENDCHAR
STARTCHAR C391
ENCODING 391
SWIDTH 840 0
DWIDTH 14 0
BBX 15 10 0 0
BITMAP
FFFE
2480
7BE0
6490
0488
1CB8
1EB8
1D80
0080
0080
ENDCHAR
STARTCHAR C392
ENCODING 392
SWIDTH 720 0
DWIDTH 12 0
BBX 14 12 0 -2
BITMAP
FFFC
7480
6BE0
6490
04B0
1EB0
1980
0E80
1980
1880
0080
0080
ENDCHAR
STARTCHAR C393
ENCODING 393
SWIDTH 840 0
DWIDTH 14 0
BBX 15 13 0 -3
BITMAP
FFFE
7488
6BE8
6498
04F8
1CF8
1A88
0188
0388
03E8
0018
0008
0008
ENDCHAR
STARTCHAR C394
ENCODING 394
SWIDTH 660 0
DWIDTH 11 0
BBX 12 10 0 0
BITMAP
FFF0
0E40
3540
6740
1740
0F40
04C0
3840
0040
0040
ENDCHAR
STARTCHAR C395
ENCODING 395
SWIDTH 660 0
DWIDTH 11 0
BBX 11 11 1 0
BITMAP
0200
7BE0
8600
E200
1200
1200
0780
1A80
1A80
0680
0280
ENDCHAR
STARTCHAR C396
ENCODING 396
SWIDTH 540 0
DWIDTH 9 0
BBX 9 11 1 0
BITMAP
0200
7B80
8600
E200
1200
3200
0200
7A00
6600
6200
0200
ENDCHAR
STARTCHAR C397
ENCODING 397
SWIDTH 540 0
DWIDTH 9 0
BBX 9 11 1 0
BITMAP
0200
7B80
8600
E200
1200
3200
0600
1A00
1A00
0600
0200
ENDCHAR
STARTCHAR C398
ENCODING 398
SWIDTH 720 0
DWIDTH 12 0
BBX 13 11 0 0
BITMAP
0080
7CF8
82A0
F1A0
08A0
18A0
00A0
03A0
03E0
03A0
0020
ENDCHAR
STARTCHAR C399
ENCODING 399
SWIDTH 600 0
DWIDTH 10 0
BBX 10 11 1 0
BITMAP
0100
7DC0
8300
E100
1100
1100
0100
7700
E900
E100
0100
ENDCHAR
STARTCHAR C400
ENCODING 400
SWIDTH 540 0
DWIDTH 9 0
BBX 10 11 0 -1
BITMAP
FFC0
4100
4500
3900
3100
0D00
0300
3D00
3B00
0100
0100
ENDCHAR
STARTCHAR C401
ENCODING 401
SWIDTH 600 0
DWIDTH 10 0
BBX 11 10 0 0
BITMAP
FFE0
3A40
6580
6200
0700
1A80
3280
0B80
0780
0200
ENDCHAR
STARTCHAR C402
ENCODING 402
SWIDTH 1200 0
DWIDTH 20 0
BBX 20 11 1 0
BITMAP
0E0000
53FFF0
BC9200
91EB00
939680
5D1240
4173C0
227BC0
1C6600
000200
000200
ENDCHAR
STARTCHAR C403
ENCODING 403
SWIDTH 780 0
DWIDTH 13 0
BBX 14 11 0 0
BITMAP
0610
EA1C
5C10
4810
4B90
2D50
2150
1E90
0190
0070
0010
ENDCHAR
STARTCHAR C404
ENCODING 404
SWIDTH 600 0
DWIDTH 10 0
BBX 11 10 0 0
BITMAP
FFE0
3480
6B80
6580
0700
0900
1100
6100
0100
0080
ENDCHAR
STARTCHAR C405
ENCODING 405
SWIDTH 900 0
DWIDTH 15 0
BBX 15 11 1 0
BITMAP
0C00
57FE
BA08
9208
97C8
9A88
4308
4588
3868
0018
0008
ENDCHAR
STARTCHAR C406
ENCODING 406
SWIDTH 660 0
DWIDTH 11 0
BBX 11 11 1 0
BITMAP
0C00
57E0
B880
9080
9680
9A80
4280
3C80
0E80
0D80
0080
ENDCHAR
STARTCHAR C407
ENCODING 407
SWIDTH 720 0
DWIDTH 12 0
BBX 14 10 0 0
BITMAP
FFFC
4200
7300
4EE0
4610
4A10
5210
2220
0240
0180
ENDCHAR
STARTCHAR C408
ENCODING 408
SWIDTH 720 0
DWIDTH 12 0
BBX 14 10 0 0
BITMAP
FFFC
4200
73E0
4E90
4690
4B20
51C0
2080
0040
0020
ENDCHAR
STARTCHAR C409
ENCODING 409
SWIDTH 720 0
DWIDTH 12 0
BBX 13 12 0 -2
BITMAP
FFF8
4400
7FC0
4520
4620
4840
3380
0080
0040
03E0
00C0
0040
ENDCHAR
STARTCHAR C410
ENCODING 410
SWIDTH 660 0
DWIDTH 11 0
BBX 12 10 0 0
BITMAP
FFF0
2000
3C00
2400
2F80
3240
5AC0
4240
4380
3E00
ENDCHAR
STARTCHAR C411
ENCODING 411
SWIDTH 960 0
DWIDTH 16 0
BBX 17 10 0 0
BITMAP
FFFF80
B80000
A7C000
9EC000
42BC00
3E7400
010C00
008C00
007400
000400
ENDCHAR
STARTCHAR C412
ENCODING 412
SWIDTH 960 0
DWIDTH 16 0
BBX 17 12 0 -2
BITMAP
FFFF80
B80000
A7C000
9EC200
42BE00
3E7200
010A00
008C00
007600
001A00
003A00
000600
ENDCHAR
STARTCHAR C413
ENCODING 413
SWIDTH 1200 0
DWIDTH 20 0
BBX 21 11 0 0
BITMAP
000020
FFFF38
0C0120
53C320
504D20
527120
2D7120
214DA0
114360
0E4160
004120
ENDCHAR
STARTCHAR C414
ENCODING 414
SWIDTH 720 0
DWIDTH 12 0
BBX 14 9 0 1
BITMAP
FFFC
0C00
9260
9190
9130
4FB0
4090
20E0
1F00
ENDCHAR
STARTCHAR C415
ENCODING 415
SWIDTH 720 0
DWIDTH 12 0
BBX 13 12 0 -2
BITMAP
FFF8
1800
A400
A3E0
A240
5D40
4140
21C0
1F40
0240
01C0
0060
ENDCHAR
STARTCHAR C417
ENCODING 417
SWIDTH 600 0
DWIDTH 10 0
BBX 8 13 1 -2
BITMAP
06
69
D3
13
69
8E
94
64
18
E0
18
06
01
ENDCHAR
STARTCHAR C418
ENCODING 418
SWIDTH 660 0
DWIDTH 11 0
BBX 10 11 1 0
BITMAP
0380
7440
C8C0
58C0
2440
C380
C680
7980
2180
1E80
0080
ENDCHAR
STARTCHAR C419
ENCODING 419
SWIDTH 600 0
DWIDTH 10 0
BBX 8 10 1 0
BITMAP
3E
AB
AB
8E
78
1A
6A
6A
1E
0A
ENDCHAR
STARTCHAR C420
ENCODING 420
SWIDTH 540 0
DWIDTH 9 0
BBX 11 15 0 -1
BITMAP
C000
3F00
0080
0040
FFE0
1000
1000
1180
1180
1080
1100
1300
4D00
2100
1E00
ENDCHAR
STARTCHAR C421
ENCODING 421
SWIDTH 480 0
DWIDTH 8 0
BBX 10 17 -1 -2
BITMAP
8000
6000
1E00
0100
0080
7FC0
2000
2000
2300
2300
2100
2200
2400
1B00
0D00
0300
0100
ENDCHAR
STARTCHAR C422
ENCODING 422
SWIDTH 900 0
DWIDTH 15 0
BBX 16 10 0 0
BITMAP
FFFF
1040
1440
5A48
4278
2204
1E04
0104
0088
0070
ENDCHAR
STARTCHAR C423
ENCODING 423
SWIDTH 780 0
DWIDTH 13 0
BBX 13 15 1 0
BITMAP
2000
1800
07C0
0020
0010
77F8
8C00
C400
C460
0460
0420
0440
0440
0480
0300
ENDCHAR
STARTCHAR C424
ENCODING 424
SWIDTH 600 0
DWIDTH 10 0
BBX 8 16 1 0
BITMAP
08
10
10
10
10
70
88
CC
0A
0A
11
11
21
41
42
3C
ENDCHAR
STARTCHAR C425
ENCODING 425
SWIDTH 600 0
DWIDTH 10 0
BBX 9 10 1 0
BITMAP
3900
E680
E080
8080
8700
8700
4080
4080
2100
1E00
ENDCHAR
STARTCHAR C426
ENCODING 426
SWIDTH 540 0
DWIDTH 9 0
BBX 9 11 1 0
BITMAP
0200
3B80
4600
C200
C200
0200
3A00
4600
C200
C200
0200
ENDCHAR
STARTCHAR C427
ENCODING 427
SWIDTH 660 0
DWIDTH 11 0
BBX 11 11 1 0
BITMAP
0400
7FE0
8480
C480
C480
0480
0480
0E80
0D80
0080
0080
ENDCHAR
STARTCHAR C428
ENCODING 428
SWIDTH 540 0
DWIDTH 9 0
BBX 11 10 0 0
BITMAP
FFE0
0F00
5080
7080
5700
4700
2080
2080
1080
0F00
ENDCHAR
STARTCHAR C429
ENCODING 429
SWIDTH 540 0
DWIDTH 9 0
BBX 10 11 0 -1
BITMAP
FFC0
0E00
7100
7700
4600
4100
2100
1F00
0F00
0D00
0300
ENDCHAR
STARTCHAR C430
ENCODING 430
SWIDTH 600 0
DWIDTH 10 0
BBX 10 11 1 0
BITMAP
0100
69C0
D500
D500
0900
3100
7100
0D00
0300
0100
0100
ENDCHAR
STARTCHAR C431
ENCODING 431
SWIDTH 600 0
DWIDTH 10 0
BBX 11 10 0 0
BITMAP
FFE0
4700
4680
2080
1080
0F00
3D00
3B00
3900
0100
ENDCHAR
STARTCHAR C432
ENCODING 432
SWIDTH 600 0
DWIDTH 10 0
BBX 11 10 0 0
BITMAP
FFE0
4700
4680
2080
2080
1180
0F00
0D00
0300
0100
ENDCHAR
STARTCHAR C433
ENCODING 433
SWIDTH 720 0
DWIDTH 12 0
BBX 13 10 0 0
BITMAP
FFF8
4F20
4EA0
20A0
10A0
0F20
07A0
0760
0020
0020
ENDCHAR
STARTCHAR C434
ENCODING 434
SWIDTH 660 0
DWIDTH 11 0
BBX 12 10 0 0
BITMAP
FFF0
0380
0440
0840
4E40
4640
4040
4040
3F40
00C0
ENDCHAR
STARTCHAR C435
ENCODING 435
SWIDTH 780 0
DWIDTH 13 0
BBX 14 10 0 0
BITMAP
FFFC
0300
04B0
08B8
4C88
4CF0
4080
4080
3F80
0080
ENDCHAR
STARTCHAR C436
ENCODING 436
SWIDTH 840 0
DWIDTH 14 0
BBX 16 12 0 -1
BITMAP
0004
FFF7
420C
438C
4E44
5444
6404
4404
0404
0404
0404
0004
ENDCHAR
STARTCHAR C437
ENCODING 437
SWIDTH 840 0
DWIDTH 14 0
BBX 15 10 0 0
BITMAP
FFFE
4208
4208
4DC8
5488
6508
4588
0468
0418
0408
ENDCHAR
STARTCHAR C438
ENCODING 438
SWIDTH 600 0
DWIDTH 10 0
BBX 11 10 0 0
BITMAP
FFE0
4800
5800
6980
4A80
0D00
0900
0100
0100
0100
ENDCHAR
STARTCHAR C439
ENCODING 439
SWIDTH 600 0
DWIDTH 10 0
BBX 11 10 0 0
BITMAP
FFE0
4000
4400
5A00
6380
4E80
3280
0A80
0680
0280
ENDCHAR
STARTCHAR C440
ENCODING 440
SWIDTH 540 0
DWIDTH 9 0
BBX 10 10 0 0
BITMAP
FFC0
4000
4200
4D00
6100
4F00
1900
0500
0300
0100
ENDCHAR
STARTCHAR C441
ENCODING 441
SWIDTH 600 0
DWIDTH 10 0
BBX 11 10 0 0
BITMAP
FFE0
4400
5C00
6400
4800
5900
5E80
2080
1080
0F00
ENDCHAR
STARTCHAR C442
ENCODING 442
SWIDTH 600 0
DWIDTH 10 0
BBX 11 10 0 0
BITMAP
FFE0
4400
5C00
6400
4800
1900
5E80
4080
2380
1C80
ENDCHAR
STARTCHAR C443
ENCODING 443
SWIDTH 540 0
DWIDTH 9 0
BBX 10 10 0 0
BITMAP
FFC0
4100
4D00
5500
6500
4500
0500
1D00
1F00
0100
ENDCHAR
STARTCHAR C444
ENCODING 444
SWIDTH 480 0
DWIDTH 8 0
BBX 8 12 1 -1
BITMAP
20
67
5C
34
C4
34
0C
04
F4
CC
04
04
ENDCHAR
STARTCHAR C445
ENCODING 445
SWIDTH 900 0
DWIDTH 15 0
BBX 15 11 1 0
BITMAP
6000
63FE
4608
3A38
22C8
4308
C308
32C8
0A28
0618
0208
ENDCHAR
STARTCHAR C446
ENCODING 446
SWIDTH 780 0
DWIDTH 13 0
BBX 14 15 0 0
BITMAP
1000
0C00
03E0
0010
0008
FFFC
0200
7A00
6630
6230
0210
0220
0220
0240
0180
ENDCHAR
STARTCHAR C447
ENCODING 447
SWIDTH 600 0
DWIDTH 10 0
BBX 12 10 0 0
BITMAP
FFF0
7400
EC00
E480
4740
4040
4040
2040
1080
0F00
ENDCHAR
STARTCHAR C448
ENCODING 448
SWIDTH 600 0
DWIDTH 10 0
BBX 11 10 0 0
BITMAP
FFE0
0080
3880
7480
4300
2780
2740
1040
0840
0780
ENDCHAR
STARTCHAR C449
ENCODING 449
SWIDTH 600 0
DWIDTH 10 0
BBX 11 11 0 -1
BITMAP
FFE0
0100
7100
6E00
0F00
3880
3F00
2700
2080
1080
0F00
ENDCHAR
STARTCHAR C450
ENCODING 450
SWIDTH 600 0
DWIDTH 10 0
BBX 11 12 0 -2
BITMAP
FFE0
0080
3880
7700
4780
2740
1040
0840
0780
0680
0180
0080
ENDCHAR
STARTCHAR C451
ENCODING 451
SWIDTH 600 0
DWIDTH 10 0
BBX 11 11 0 -1
BITMAP
FFE0
0080
3880
3700
0480
0880
4C80
4C80
4080
3F80
0080
ENDCHAR
STARTCHAR C452
ENCODING 452
SWIDTH 600 0
DWIDTH 10 0
BBX 11 11 0 -1
BITMAP
FFE0
0100
7100
6F00
0C80
1880
0080
1F00
0600
0100
0080
ENDCHAR
STARTCHAR C453
ENCODING 453
SWIDTH 660 0
DWIDTH 11 0
BBX 12 10 0 0
BITMAP
FFF0
0400
F400
ECC0
E540
0640
0440
0040
0040
0040
ENDCHAR
STARTCHAR C454
ENCODING 454
SWIDTH 600 0
DWIDTH 10 0
BBX 11 10 0 0
BITMAP
FFE0
0200
7A00
6600
0380
0E80
3280
0A80
0680
0280
ENDCHAR
STARTCHAR C455
ENCODING 455
SWIDTH 540 0
DWIDTH 9 0
BBX 10 10 0 0
BITMAP
FFC0
0100
7D00
6300
6100
0100
7D00
6300
6100
0100
ENDCHAR
STARTCHAR C456
ENCODING 456
SWIDTH 540 0
DWIDTH 9 0
BBX 10 10 0 0
BITMAP
FFC0
0100
7D00
6300
6100
0300
0D00
0D00
0300
0100
ENDCHAR
STARTCHAR C457
ENCODING 457
SWIDTH 660 0
DWIDTH 11 0
BBX 12 10 0 0
BITMAP
FFF0
3A40
6640
6240
0240
0240
0740
06C0
0040
0040
ENDCHAR
STARTCHAR C458
ENCODING 458
SWIDTH 720 0
DWIDTH 12 0
BBX 13 10 0 0
BITMAP
FFF8
0420
0220
7A20
67A0
0660
2420
1820
0020
0020
ENDCHAR
STARTCHAR C459
ENCODING 459
SWIDTH 780 0
DWIDTH 13 0
BBX 13 15 1 0
BITMAP
2000
1800
07C0
0020
0010
77F8
8C00
5C00
6460
0460
0420
0440
0440
0480
0300
ENDCHAR
STARTCHAR C460
ENCODING 460
SWIDTH 660 0
DWIDTH 11 0
BBX 11 11 1 0
BITMAP
0100
7DE0
C700
2900
B100
A300
4700
4680
2080
1080
0F00
ENDCHAR
STARTCHAR C461
ENCODING 461
SWIDTH 600 0
DWIDTH 10 0
BBX 10 11 1 0
BITMAP
0100
79C0
C700
2B00
3100
6100
0100
3D00
3300
3100
0100
ENDCHAR
STARTCHAR C462
ENCODING 462
SWIDTH 600 0
DWIDTH 10 0
BBX 10 12 1 -1
BITMAP
0100
79C0
C700
2900
3100
4100
3900
C500
4700
3900
2100
0100
ENDCHAR
STARTCHAR C463
ENCODING 463
SWIDTH 600 0
DWIDTH 10 0
BBX 10 11 1 0
BITMAP
0100
79C0
C700
2B00
3100
6100
3100
4F00
6100
6100
0100
ENDCHAR
STARTCHAR C464
ENCODING 464
SWIDTH 720 0
DWIDTH 12 0
BBX 13 10 0 0
BITMAP
FFF8
0420
7E20
6A20
33A0
0260
2420
1820
0020
0020
ENDCHAR
STARTCHAR C465
ENCODING 465
SWIDTH 660 0
DWIDTH 11 0
BBX 12 11 0 -1
BITMAP
FFF0
19C0
0920
1120
19E0
05C0
3300
4F00
6100
6100
0100
ENDCHAR
STARTCHAR C466
ENCODING 466
SWIDTH 660 0
DWIDTH 11 0
BBX 13 10 0 0
BITMAP
FFF8
1800
6FE0
9820
8B00
8C80
4080
3080
0F00
0020
ENDCHAR
STARTCHAR C467
ENCODING 467
SWIDTH 660 0
DWIDTH 11 0
BBX 12 10 0 0
BITMAP
FFF0
0C00
3400
64C0
1540
0E40
0440
0040
0040
0040
ENDCHAR
STARTCHAR C468
ENCODING 468
SWIDTH 660 0
DWIDTH 11 0
BBX 12 10 0 0
BITMAP
FFF0
0700
3900
41C0
2740
1940
3140
0D40
0340
0140
ENDCHAR
STARTCHAR C469
ENCODING 469
SWIDTH 540 0
DWIDTH 9 0
BBX 10 10 0 0
BITMAP
FFC0
0700
3900
4100
2700
1900
3100
0D00
0300
0100
ENDCHAR
STARTCHAR C470
ENCODING 470
SWIDTH 540 0
DWIDTH 9 0
BBX 10 10 0 0
BITMAP
FFC0
0700
1900
3100
0D00
0300
3F00
6500
6100
0100
ENDCHAR
STARTCHAR C471
ENCODING 471
SWIDTH 720 0
DWIDTH 12 0
BBX 13 10 0 0
BITMAP
FFF8
0000
0040
2CA0
4F20
4420
4020
2020
1FE0
0020
ENDCHAR
STARTCHAR C472
ENCODING 472
SWIDTH 600 0
DWIDTH 10 0
BBX 11 11 0 -1
BITMAP
FFE0
5900
5E80
2080
1080
0F80
3880
4780
7480
3080
0080
ENDCHAR
STARTCHAR C473
ENCODING 473
SWIDTH 540 0
DWIDTH 9 0
BBX 10 10 0 0
BITMAP
FFC0
2080
7080
6980
0700
0100
7D00
7300
7100
0100
ENDCHAR
STARTCHAR C474
ENCODING 474
SWIDTH 1020 0
DWIDTH 17 0
BBX 18 11 0 0
BITMAP
000100
FE79C0
618500
714B00
6E5100
006100
000100
000100
000100
000100
000100
ENDCHAR
STARTCHAR C475
ENCODING 475
SWIDTH 960 0
DWIDTH 16 0
BBX 17 10 0 0
BITMAP
FFFF80
610C00
710A00
6F8900
008900
010F00
038E00
004800
003800
001800
ENDCHAR
STARTCHAR C476
ENCODING 476
SWIDTH 540 0
DWIDTH 9 0
BBX 10 10 0 0
BITMAP
FFC0
2080
7080
6880
0700
0700
1900
0500
0300
0100
ENDCHAR
STARTCHAR C477
ENCODING 477
SWIDTH 660 0
DWIDTH 11 0
BBX 12 10 0 0
BITMAP
FFF0
1040
7840
7440
4F80
4D80
4E40
2040
1080
0F00
ENDCHAR
STARTCHAR C478
ENCODING 478
SWIDTH 600 0
DWIDTH 10 0
BBX 11 10 0 0
BITMAP
FFE0
1080
7080
6880
1F00
5A80
5C80
4080
3F80
0080
ENDCHAR
STARTCHAR C479
ENCODING 479
SWIDTH 720 0
DWIDTH 12 0
BBX 13 10 0 0
BITMAP
FFF8
20A0
70A0
68A0
07A0
00A0
03A0
03E0
0020
0020
ENDCHAR
STARTCHAR C480
ENCODING 480
SWIDTH 600 0
DWIDTH 10 0
BBX 11 10 0 0
BITMAP
FFE0
1080
7080
6880
0780
3880
4780
7480
3080
0080
ENDCHAR
STARTCHAR C481
ENCODING 481
SWIDTH 660 0
DWIDTH 11 0
BBX 12 10 0 0
BITMAP
FFF0
0100
3F00
6900
6380
0D40
3940
05C0
03C0
0100
ENDCHAR
STARTCHAR C482
ENCODING 482
SWIDTH 600 0
DWIDTH 10 0
BBX 11 10 0 0
BITMAP
FFE0
0080
3B80
6480
6080
1E80
3180
2C80
0480
0880
ENDCHAR
STARTCHAR C483
ENCODING 483
SWIDTH 600 0
DWIDTH 10 0
BBX 11 12 0 -2
BITMAP
FFE0
3F00
4500
6100
6F00
5980
5580
4780
2B80
2040
1040
0F80
ENDCHAR
STARTCHAR C484
ENCODING 484
SWIDTH 780 0
DWIDTH 13 0
BBX 14 15 0 0
BITMAP
1000
0C00
03E0
0010
0008
FFFC
0200
3E00
6A30
6230
0210
0220
0220
0240
0180
ENDCHAR
STARTCHAR C485
ENCODING 485
SWIDTH 720 0
DWIDTH 12 0
BBX 13 10 0 0
BITMAP
FFF8
3600
6A00
6240
03C0
1020
1020
1020
0840
0780
ENDCHAR
STARTCHAR C486
ENCODING 486
SWIDTH 600 0
DWIDTH 10 0
BBX 11 10 0 0
BITMAP
FFE0
3B80
4480
7080
3080
3C80
6380
1580
1880
3080
ENDCHAR
STARTCHAR C487
ENCODING 487
SWIDTH 600 0
DWIDTH 10 0
BBX 11 10 0 0
BITMAP
FFE0
0080
3B80
4580
6080
6180
0680
0C80
0380
0080
ENDCHAR
STARTCHAR C488
ENCODING 488
SWIDTH 720 0
DWIDTH 12 0
BBX 13 10 0 0
BITMAP
FFF8
00A0
3EA0
65A0
60A0
00A0
03A0
03E0
03A0
0020
ENDCHAR
STARTCHAR C489
ENCODING 489
SWIDTH 600 0
DWIDTH 10 0
BBX 11 10 0 0
BITMAP
FFE0
0080
3B80
6480
6080
3880
4780
6480
6080
0080
ENDCHAR
STARTCHAR C490
ENCODING 490
SWIDTH 840 0
DWIDTH 14 0
BBX 15 11 0 0
BITMAP
0100
EDFE
3B00
7D80
6D70
0108
0108
0108
0110
0120
00C0
ENDCHAR
STARTCHAR C491
ENCODING 491
SWIDTH 900 0
DWIDTH 15 0
BBX 16 11 0 0
BITMAP
0080
EEFF
1980
3CF8
3CA4
00A4
00C8
0070
0020
0010
0008
ENDCHAR
STARTCHAR C492
ENCODING 492
SWIDTH 600 0
DWIDTH 10 0
BBX 11 11 0 0
BITMAP
0080
E6E0
1980
3C80
3C80
0080
0080
1E80
1980
1880
0080
ENDCHAR
STARTCHAR C493
ENCODING 493
SWIDTH 720 0
DWIDTH 12 0
BBX 13 11 0 0
BITMAP
0080
EEF8
39A0
7CA0
7CA0
00A0
00A0
03A0
03E0
03A0
0020
ENDCHAR
STARTCHAR C494
ENCODING 494
SWIDTH 600 0
DWIDTH 10 0
BBX 11 11 0 0
BITMAP
0080
E6E0
1980
3C80
3C80
0080
1880
2780
3080
3080
0080
ENDCHAR
STARTCHAR C495
ENCODING 495
SWIDTH 600 0
DWIDTH 10 0
BBX 11 11 0 0
BITMAP
0080
E6E0
1980
3C80
3C80
0080
0180
0680
0C80
0380
0080
ENDCHAR
STARTCHAR C496
ENCODING 496
SWIDTH 600 0
DWIDTH 10 0
BBX 11 10 0 0
BITMAP
FFE0
2200
5A00
4700
3A80
2280
6380
1B80
0600
0600
ENDCHAR
STARTCHAR C497
ENCODING 497
SWIDTH 840 0
DWIDTH 14 0
BBX 15 11 0 -1
BITMAP
FFFE
3200
4A00
4780
3C40
2678
2658
2058
2040
1FC0
0040
ENDCHAR
STARTCHAR C498
ENCODING 498
SWIDTH 540 0
DWIDTH 9 0
BBX 10 15 0 -1
BITMAP
C000
3E00
0100
0080
FFC0
2200
5200
4A00
4C00
3B00
2300
2100
2100
1200
0C00
ENDCHAR
STARTCHAR C499
ENCODING 499
SWIDTH 600 0
DWIDTH 10 0
BBX 11 16 0 0
BITMAP
0400
0800
0800
0800
0800
0800
FFE0
2600
5500
4D00
3880
0880
1080
2080
2100
1E00
ENDCHAR
STARTCHAR C500
ENCODING 500
SWIDTH 780 0
DWIDTH 13 0
BBX 12 10 0 0
BITMAP
FF60
3190
0910
1530
2330
6110
1990
0560
0300
0300
ENDCHAR
STARTCHAR C501
ENCODING 501
SWIDTH 900 0
DWIDTH 15 0
BBX 16 11 0 0
BITMAP
0004
FDE7
2714
54AC
48C4
3084
0004
0004
0004
0004
0004
ENDCHAR
STARTCHAR C502
ENCODING 502
SWIDTH 840 0
DWIDTH 14 0
BBX 15 10 0 0
BITMAP
FFFE
2430
5428
4E24
3124
023C
0638
01A0
0060
0020
ENDCHAR
STARTCHAR C503
ENCODING 503
SWIDTH 600 0
DWIDTH 10 0
BBX 11 10 0 0
BITMAP
FFE0
2280
5A80
4480
3C80
1E80
1D80
1C80
0080
0080
ENDCHAR
STARTCHAR C504
ENCODING 504
SWIDTH 720 0
DWIDTH 12 0
BBX 14 10 0 0
BITMAP
FFFC
0840
1440
63C0
01E0
0650
0E50
0170
00F0
0040
ENDCHAR
STARTCHAR C505
ENCODING 505
SWIDTH 840 0
DWIDTH 14 0
BBX 15 11 0 -1
BITMAP
FFFE
0C40
4A40
3380
0440
2678
2658
2058
2040
1FC0
0040
ENDCHAR
STARTCHAR C506
ENCODING 506
SWIDTH 720 0
DWIDTH 12 0
BBX 14 12 0 -2
BITMAP
FFFC
0840
1440
63C0
00E0
0350
0670
0170
1DC0
3A40
3840
0040
ENDCHAR
STARTCHAR C507
ENCODING 507
SWIDTH 780 0
DWIDTH 13 0
BBX 14 11 0 0
BITMAP
0010
FF1C
1910
1910
6790
0750
0750
0690
0110
00D0
0030
ENDCHAR
STARTCHAR C508
ENCODING 508
SWIDTH 840 0
DWIDTH 14 0
BBX 15 15 0 0
BITMAP
1000
0C00
03F0
0008
0004
FFFE
1100
0900
0F18
1118
6108
0110
0110
0120
00C0
ENDCHAR
STARTCHAR C509
ENCODING 509
SWIDTH 660 0
DWIDTH 11 0
BBX 12 10 0 0
BITMAP
FFF0
0C20
0A20
71C0
4380
2340
2040
1040
0840
0780
ENDCHAR
STARTCHAR C510
ENCODING 510
SWIDTH 600 0
DWIDTH 10 0
BBX 11 11 0 -1
BITMAP
FFE0
1880
1480
6300
0F00
3880
3F00
2700
2080
1080
0F00
ENDCHAR
STARTCHAR C511
ENCODING 511
SWIDTH 660 0
DWIDTH 11 0
BBX 12 11 0 -1
BITMAP
FFF0
0C40
4A40
3380
0440
0E40
4E40
4040
2040
1FC0
0040
ENDCHAR
ENDFONT
